# xmcd CD database file
#
# Track frame offsets:
#	150
#	29611
#	56890
#	87559
#	117519
#	135694
#	148055
#	164547
#	180723
#	206059
#	230928
#	257789
#
# Disc length: 3823 seconds
#
# Revision: 2
# Processed by: cddbd v1.5.2PL0 Copyright (c) Steve Scherf et al.
# Submitted via: CDex 1.51
#
DISCID=c40eed0c
DTITLE=Tony Kinsey and Joe Harriott - Kinsey and Harriott - The EPs
DYEAR=1960
DGENRE=Jazz
TTITLE0=The Song is You
TTITLE1=It Dont Mean a Thing
TTITLE2=Introduction
TTITLE3=Harlem
TTITLE4=Senor Blues
TTITLE5=Still Goofin'
TTITLE6=Count Twelve
TTITLE7=Jumping with Joe
TTITLE8=Liggin'
TTITLE9=Caravan
TTITLE10=Bird 1
TTITLE11=Bird 2
EXTD=YEAR: 1960
EXTT0=
EXTT1=
EXTT2=
EXTT3=
EXTT4=
EXTT5=
EXTT6=
EXTT7=
EXTT8=
EXTT9=
EXTT10=
EXTT11=
PLAYORDER=
